<?xml version="1.0" encoding="utf-8"?>
<svg version="1.1" xmlns:xlink="http://www.w3.org/1999/xlink" width="20px" height="20px" viewBox="504 519  20 20" xmlns="http://www.w3.org/2000/svg">
  <path d="M 514 519  C 519.6 519  524 523.4  524 529  C 524 534.6  519.6 539  514 539  C 508.4 539  504 534.6  504 529  C 504 523.4  508.4 519  514 519  Z " fill-rule="nonzero" fill="#f0f0f0" stroke="none" />
  <path d="M 514 519.5  C 519.32 519.5  523.5 523.68  523.5 529  C 523.5 534.32  519.32 538.5  514 538.5  C 508.68 538.5  504.5 534.32  504.5 529  C 504.5 523.68  508.68 519.5  514 519.5  Z " stroke-width="1" stroke="#797979" fill="none" />
  <path d="M 514 534  C 511.2 534  509 531.8  509 529  C 509 526.2  511.2 524  514 524  C 516.8 524  519 526.2  519 529  C 519 531.8  516.8 534  514 534  " fill-rule="nonzero" fill="#797979" stroke="none" />
</svg>